<svg width="30" height="30" viewBox="0 0 30 30" fill="none" xmlns="http://www.w3.org/2000/svg">
<path d="M16.5909 9.19191C16.5909 8.79007 16.4313 8.40468 16.1471 8.12054C15.863 7.83639 15.4776 7.67676 15.0758 7.67676C14.6739 7.67676 14.2885 7.83639 14.0044 8.12054C13.7202 8.40468 13.5606 8.79007 13.5606 9.19191H12.5505C12.5505 8.52217 12.8166 7.87986 13.2901 7.40629C13.7637 6.93271 14.406 6.66666 15.0758 6.66666C15.7455 6.66666 16.3878 6.93271 16.8614 7.40629C17.335 7.87986 17.601 8.52217 17.601 9.19191H22.1465C22.2804 9.19191 22.4089 9.24512 22.5036 9.33983C22.5983 9.43455 22.6515 9.56301 22.6515 9.69696C22.6515 9.83091 22.5983 9.95937 22.5036 10.0541C22.4089 10.1488 22.2804 10.202 22.1465 10.202H21.5869L20.2778 21.5454C20.2208 22.0378 19.9848 22.492 19.6147 22.8216C19.2447 23.1513 18.7663 23.3334 18.2707 23.3333H11.8808C11.3852 23.3334 10.9069 23.1513 10.5368 22.8216C10.1667 22.492 9.93073 22.0378 9.87374 21.5454L8.56364 10.202H8.00505C7.88684 10.202 7.77237 10.1606 7.68156 10.0849C7.59075 10.0093 7.52936 9.90415 7.50808 9.78787L7.5 9.69696C7.5 9.56301 7.55321 9.43455 7.64793 9.33983C7.74264 9.24512 7.8711 9.19191 8.00505 9.19191H16.5909ZM20.5687 10.202H9.58182L10.8768 21.4293C10.9053 21.6755 11.0233 21.9027 11.2085 22.0675C11.3936 22.2324 11.6329 22.3234 11.8808 22.3232H18.2707C18.5184 22.3231 18.7575 22.232 18.9424 22.0672C19.1273 21.9024 19.2453 21.6754 19.2737 21.4293L20.5687 10.202ZM13.5606 12.7273C13.8081 12.7273 14.0152 12.8838 14.0576 13.0899L14.0657 13.1697V19.3566C14.0657 19.6 13.8394 19.798 13.5606 19.798C13.3131 19.798 13.1061 19.6414 13.0636 19.4353L13.0556 19.3555V13.1707C13.0556 12.9263 13.2818 12.7283 13.5606 12.7283V12.7273ZM16.5909 12.7273C16.8384 12.7273 17.0455 12.8838 17.0879 13.0899L17.096 13.1697V19.3566C17.096 19.6 16.8697 19.798 16.5909 19.798C16.3434 19.798 16.1364 19.6414 16.0939 19.4353L16.0859 19.3555V13.1707C16.0859 12.9263 16.3121 12.7283 16.5909 12.7283V12.7273Z" fill="#767676"/>
<rect x="0.5" y="0.5" width="29" height="29" stroke="#767676"/>
</svg>
