<svg width="32" height="32" viewBox="0 0 32 32" fill="none" xmlns="http://www.w3.org/2000/svg">
<path d="M3.81195 3.836L20.572 1.44267C20.6665 1.4291 20.7629 1.43602 20.8546 1.46297C20.9463 1.48991 21.0311 1.53625 21.1033 1.59885C21.1755 1.66144 21.2334 1.73882 21.2731 1.82575C21.3128 1.91267 21.3333 2.00711 21.3333 2.10267V29.8973C21.3333 29.9928 21.3128 30.0871 21.2732 30.1739C21.2336 30.2607 21.1758 30.338 21.1037 30.4006C21.0317 30.4632 20.9471 30.5095 20.8555 30.5366C20.764 30.5636 20.6678 30.5707 20.5733 30.5573L3.81062 28.164C3.49278 28.1187 3.20194 27.9603 2.99153 27.7178C2.78113 27.4753 2.66529 27.1651 2.66528 26.844V5.156C2.66529 4.83495 2.78113 4.52469 2.99153 4.28219C3.20194 4.0397 3.49278 3.88127 3.81062 3.836H3.81195ZM5.33328 6.31334V25.6867L18.6666 27.592V4.408L5.33328 6.31334ZM22.6666 25.3333H26.6666V6.66667H22.6666V4H27.9999C28.3536 4 28.6927 4.14048 28.9428 4.39053C29.1928 4.64057 29.3333 4.97971 29.3333 5.33334V26.6667C29.3333 27.0203 29.1928 27.3594 28.9428 27.6095C28.6927 27.8595 28.3536 28 27.9999 28H22.6666V25.3333ZM13.6 16L17.3333 21.3333H14.1333L12 18.2853L9.86662 21.3333H6.66662L10.4 16L6.66662 10.6667H9.86662L12 13.7147L14.1333 10.6667H17.3333L13.6 16Z" fill="black"/>
</svg>
