<svg width="32" height="32" viewBox="0 0 32 32" fill="none" xmlns="http://www.w3.org/2000/svg">
<path d="M26.6666 7.99999H16L13.3333 5.33333H5.33329C3.86663 5.33333 2.67996 6.53333 2.67996 7.99999L2.66663 24C2.66663 25.4667 3.86663 26.6667 5.33329 26.6667H26.6666C28.1333 26.6667 29.3333 25.4667 29.3333 24V10.6667C29.3333 9.19999 28.1333 7.99999 26.6666 7.99999ZM26.6666 24H5.33329V7.99999H12.2266L14.8933 10.6667H26.6666V24ZM12.5466 19.2267L14.6666 17.12V22.6667H17.3333V17.12L19.4533 19.24L21.3333 17.3467L16.0133 12L10.6666 17.3467L12.5466 19.2267Z" fill="black"/>
</svg>
