<svg width="30" height="30" viewBox="0 0 30 30" fill="none" xmlns="http://www.w3.org/2000/svg">
<path d="M14.7778 10.1111C16.4122 10.1057 18.015 10.5616 19.4019 11.4264C20.7888 12.2913 21.9034 13.5299 22.6178 15C21.1511 17.9956 18.1556 19.8889 14.7778 19.8889C11.4 19.8889 8.40444 17.9956 6.93778 15C7.6521 13.5299 8.76678 12.2913 10.1537 11.4264C11.5406 10.5616 13.1433 10.1057 14.7778 10.1111ZM14.7778 8.33333C10.3333 8.33333 6.53778 11.0978 5 15C6.53778 18.9022 10.3333 21.6667 14.7778 21.6667C19.2222 21.6667 23.0178 18.9022 24.5556 15C23.0178 11.0978 19.2222 8.33333 14.7778 8.33333ZM14.7778 12.7778C15.3671 12.7778 15.9324 13.0119 16.3491 13.4287C16.7659 13.8454 17 14.4106 17 15C17 15.5894 16.7659 16.1546 16.3491 16.5713C15.9324 16.9881 15.3671 17.2222 14.7778 17.2222C14.1884 17.2222 13.6232 16.9881 13.2064 16.5713C12.7897 16.1546 12.5556 15.5894 12.5556 15C12.5556 14.4106 12.7897 13.8454 13.2064 13.4287C13.6232 13.0119 14.1884 12.7778 14.7778 12.7778ZM14.7778 11C12.5733 11 10.7778 12.7956 10.7778 15C10.7778 17.2044 12.5733 19 14.7778 19C16.9822 19 18.7778 17.2044 18.7778 15C18.7778 12.7956 16.9822 11 14.7778 11Z" fill="#767676"/>
<rect x="0.5" y="0.5" width="29" height="29" stroke="#767676"/>
</svg>
