<svg width="32" height="32" viewBox="0 0 32 32" fill="none" xmlns="http://www.w3.org/2000/svg">
<path d="M28.3 20L27.391 28.611L26 20H24L22.609 28.611L21.7 20H20L21.36 30H23.64L25 21.626L26.36 30H28.64L30 20H28.3Z" fill="black"/>
<path d="M25.707 9.293L18.707 2.293C18.5195 2.10545 18.2652 2.00006 18 2H8C7.46973 2.00053 6.96133 2.21141 6.58637 2.58637C6.21141 2.96133 6.00053 3.46973 6 4V28C6.00053 28.5303 6.21141 29.0387 6.58637 29.4136C6.96133 29.7886 7.46973 29.9995 8 30H16V28H8V4H16V10C16.0005 10.5303 16.2114 11.0387 16.5864 11.4136C16.9613 11.7886 17.4697 11.9995 18 12H24V16H26V10C25.9999 9.73481 25.8946 9.48049 25.707 9.293ZM18 4.414L23.586 10H18V4.414Z" fill="black"/>
</svg>
